<svg xmlns="http://www.w3.org/2000/svg" xmlns:xlink="http://www.w3.org/1999/xlink" viewBox="0 0 205.59 208.92"><defs><style>.cls-1,.cls-2,.cls-4{fill:none;}.cls-2{stroke:#9a07fc;}.cls-2,.cls-4{stroke-linecap:round;stroke-linejoin:round;stroke-width:1.76px;}.cls-3{clip-path:url(#clip-path);}.cls-4{stroke:#96ff0c;}</style><clipPath id="clip-path"><polygon class="cls-1" points="186.67 66.61 181.92 53.24 23.67 53.24 18.92 66.61 27.19 79.88 22.43 85.94 138.82 85.94 63.01 186.95 83.2 208.04 102.8 193.67 180.97 83.82 178.4 79.88 186.67 66.61"/></clipPath></defs><title>Recurso 1</title><g id="Capa_2" data-name="Capa 2"><g id="Capa_1-2" data-name="Capa 1"><polyline class="cls-2" points="21.4 140.4 0.88 113.42 27.19 79.88 18.92 66.61 42.29 0.88 83.71 29.86 55.91 44.76"/><polyline class="cls-2" points="18.92 66.61 55.91 44.76 95.01 102.5 81.84 176.13"/><polyline class="cls-2" points="27.19 79.88 55.91 44.76 42.29 0.88"/><polyline class="cls-2" points="64.07 188.13 21.4 140.4 81.84 176.13"/><polyline class="cls-2" points="65.32 141.52 95.01 102.37 41.37 85.06 65.32 141.52 21.4 140.4 55.91 44.76"/><polyline class="cls-2" points="102.8 176.13 81.84 176.13 96.63 192.33 102.8 192.33"/><polyline class="cls-2" points="64.07 188.13 83.2 208.04 102.8 193.67"/><polyline class="cls-2" points="102.8 53.73 83.71 29.86 102.8 29.86"/><polyline class="cls-2" points="50.59 106.79 71.2 112.89 68.53 93.95"/><line class="cls-2" x1="95.01" y1="102.5" x2="102.74" y2="115.21"/><polyline class="cls-2" points="184.19 140.4 204.71 113.42 178.4 79.88 186.67 66.61 163.3 0.88 121.88 29.86 149.69 44.76"/><polyline class="cls-2" points="186.67 66.61 149.69 44.76 110.58 102.5 123.75 176.13"/><polyline class="cls-2" points="178.4 79.88 149.69 44.76 163.3 0.88"/><polyline class="cls-2" points="141.52 188.13 184.19 140.4 123.75 176.13"/><polyline class="cls-2" points="140.27 141.52 110.58 102.37 164.22 85.06 140.27 141.52 184.19 140.4 149.69 44.76"/><polyline class="cls-2" points="102.8 176.13 123.75 176.13 108.96 192.33 102.8 192.33"/><polyline class="cls-2" points="141.52 188.13 122.39 208.04 102.8 193.67"/><polyline class="cls-2" points="102.8 53.73 121.88 29.86 102.8 29.86"/><polyline class="cls-2" points="155 106.79 134.39 112.89 137.06 93.95"/><line class="cls-2" x1="110.58" y1="102.5" x2="102.85" y2="115.21"/><g class="cls-3"><polyline class="cls-4" points="21.4 140.4 0.88 113.42 27.19 79.88 18.92 66.61 42.29 0.88 83.71 29.86 55.91 44.76"/><polyline class="cls-4" points="18.92 66.61 55.91 44.76 95.01 102.5 81.84 176.13"/><polyline class="cls-4" points="27.19 79.88 55.91 44.76 42.29 0.88"/><polyline class="cls-4" points="64.07 188.13 21.4 140.4 81.84 176.13"/><polyline class="cls-4" points="65.32 141.52 95.01 102.37 41.37 85.06 65.32 141.52 21.4 140.4 55.91 44.76"/><polyline class="cls-4" points="102.8 176.13 81.84 176.13 96.63 192.33 102.8 192.33"/><polyline class="cls-4" points="64.07 188.13 83.2 208.04 102.8 193.67"/><polyline class="cls-4" points="102.8 53.73 83.71 29.86 102.8 29.86"/><polyline class="cls-4" points="50.59 106.79 71.2 112.89 68.53 93.95"/><line class="cls-4" x1="95.01" y1="102.5" x2="102.74" y2="115.21"/><polyline class="cls-4" points="184.19 140.4 204.71 113.42 178.4 79.88 186.67 66.61 163.3 0.88 121.88 29.86 149.69 44.76"/><polyline class="cls-4" points="186.67 66.61 149.69 44.76 110.58 102.5 123.75 176.13"/><polyline class="cls-4" points="178.4 79.88 149.69 44.76 163.3 0.88"/><polyline class="cls-4" points="141.52 188.13 184.19 140.4 123.75 176.13"/><polyline class="cls-4" points="140.27 141.52 110.58 102.37 164.22 85.06 140.27 141.52 184.19 140.4 149.69 44.76"/><polyline class="cls-4" points="102.8 176.13 123.75 176.13 108.96 192.33 102.8 192.33"/><polyline class="cls-4" points="141.52 188.13 122.39 208.04 102.8 193.67"/><polyline class="cls-4" points="102.8 53.73 121.88 29.86 102.8 29.86"/><polyline class="cls-4" points="155 106.79 134.39 112.89 137.06 93.95"/><line class="cls-4" x1="110.58" y1="102.5" x2="102.85" y2="115.21"/></g><polygon class="cls-4" points="186.67 66.61 181.92 53.24 23.67 53.24 18.92 66.61 27.19 79.88 22.43 85.94 138.82 85.94 63.01 186.95 83.2 208.04 102.8 193.67 180.97 83.82 178.4 79.88 186.67 66.61"/></g></g></svg>